<?xml version="1.0" encoding="UTF-8"?>
<svg width="17px" height="12px" viewBox="0 0 17 12" version="1.1" xmlns="http://www.w3.org/2000/svg" xmlns:xlink="http://www.w3.org/1999/xlink">
    <!-- Generator: Sketch 61.2 (89653) - https://sketch.com -->
    <title>email copy</title>
    <desc>Created with Sketch.</desc>
    <g id="Symbols" stroke="none" stroke-width="1" fill="none" fill-rule="evenodd">
        <g id="FOOTER/DESKTOP" transform="translate(-987.000000, -154.000000)" fill="#FFFFFF">
            <g id="Group-2">
                <g id="Group-11" transform="translate(985.000000, 60.000000)">
                    <g id="Group-3" transform="translate(2.000000, 88.000000)">
                        <g id="email-copy" transform="translate(0.000000, 6.000000)">
                            <polygon id="Path" points="11.268875 6.08945455 17 9.80945455 17 2.21236364"></polygon>
                            <polygon id="Path" points="1.22568622e-13 2.21236364 1.22568622e-13 9.80945455 5.731125 6.08945455"></polygon>
                            <path d="M15.9375,-1.17239551e-13 L1.0625,-1.17239551e-13 C0.5323125,-1.17239551e-13 0.1115625,0.405818182 0.031875,0.928363636 L8.5,6.65672727 L16.968125,0.928363636 C16.8884375,0.405818182 16.4676875,-1.17239551e-13 15.9375,-1.17239551e-13 Z" id="Path"></path>
                            <path d="M10.295625,6.74836364 L8.7921875,7.76509091 C8.7029375,7.82509091 8.602,7.85454545 8.5,7.85454545 C8.398,7.85454545 8.2970625,7.82509091 8.2078125,7.76509091 L6.704375,6.74727273 L0.034,11.0792727 C0.1158125,11.5974545 0.5344375,12 1.0625,12 L15.9375,12 C16.4655625,12 16.8841875,11.5974545 16.966,11.0792727 L10.295625,6.74836364 Z" id="Path"></path>
                        </g>
                    </g>
                </g>
            </g>
        </g>
    </g>
</svg>