<?xml version="1.0" encoding="UTF-8"?>
<svg width="19px" height="20px" viewBox="0 0 19 20" version="1.1" xmlns="http://www.w3.org/2000/svg" xmlns:xlink="http://www.w3.org/1999/xlink">
    <!-- Generator: Sketch 61.2 (89653) - https://sketch.com -->
    <title>Path</title>
    <desc>Created with Sketch.</desc>
    <g id="Symbols" stroke="none" stroke-width="1" fill="none" fill-rule="evenodd">
        <g id="FOOTER/DESKTOP" transform="translate(-987.000000, -106.000000)" fill="#FFFFFF">
            <g id="Group-2">
                <g id="Group-11" transform="translate(985.000000, 60.000000)">
                    <g id="phone-receiver-silhouette-copy" transform="translate(2.000000, 46.000000)">
                        <path d="M16.78004,13.5546 C15.60356,12.54836 14.4096,11.93884 13.24756,12.94356 L12.55368,13.5508 C12.046,13.9916 11.10208,16.0512 7.45256,11.85296 C3.8038,7.66004 5.97512,7.0072 6.48356,6.5702 L7.18124,5.9622 C8.3372,4.9552 7.90096,3.68752 7.06724,2.3826 L6.56412,1.5922 C5.7266,0.29032 4.8146,-0.56468 3.6556,0.4408 L3.02936,0.988 C2.51712,1.36116 1.08528,2.57412 0.73796,4.87844 C0.31996,7.64332 1.63856,10.80948 4.65956,14.28344 C7.67676,17.75892 10.63088,19.50464 13.4292,19.47424 C15.7548,19.44916 17.15928,18.20124 17.59856,17.74752 L18.22708,17.19956 C19.38304,16.19484 18.66484,15.17188 17.4876,14.16336 L16.78004,13.5546 Z" id="Path"></path>
                    </g>
                </g>
            </g>
        </g>
    </g>
</svg>