<?xml version="1.0" encoding="UTF-8"?>
<svg width="81px" height="57px" viewBox="0 0 81 57" version="1.1" xmlns="http://www.w3.org/2000/svg" xmlns:xlink="http://www.w3.org/1999/xlink">
    <!-- Generator: Sketch 61.2 (89653) - https://sketch.com -->
    <title>Group 30</title>
    <desc>Created with Sketch.</desc>
    <defs>
        <path d="M2.09082969,0.185385254 L2.14809917,0.231052727 L2.17056263,0.23179328 C1.04492114,5.60599083 0.176004908,9.68496012 0.248826013,11.3050446 L0.248826013,11.3050446 C0.322140821,12.9330283 1.08960121,13.5583024 1.08960121,13.5583024 L1.08960121,13.5583024 L6.24187953,13.5583024 L6.24187953,0.185385254 L2.09082969,0.185385254 Z" id="path-1"></path>
        <path d="M0.0733148075,0.185385254 L0.0733148075,13.5583024 L5.22534628,13.5583024 C5.22534628,13.5583024 5.99330037,12.9330283 6.06661518,11.3050446 L6.06661518,11.3050446 C6.13918943,9.68496012 5.2702732,5.60599083 4.14463171,0.23179328 L4.14463171,0.23179328 L4.16709517,0.231052727 L4.22436465,0.185385254 L0.0733148075,0.185385254 Z" id="path-3"></path>
        <path d="M4.48750803,0.101949547 C2.13156014,0.101949547 0.221672381,1.90569129 0.217229059,4.1320423 L0.217229059,4.1320423 L17.6999719,4.1320423 C17.6955285,1.90569129 15.7856408,0.101949547 13.4296929,0.101949547 L13.4296929,0.101949547 L4.48750803,0.101949547 Z" id="path-5"></path>
    </defs>
    <g id="Symbols" stroke="none" stroke-width="1" fill="none" fill-rule="evenodd">
        <g id="FOOTER/DESKTOP" transform="translate(-220.000000, -60.000000)">
            <g id="Group-2">
                <g id="Group-30" transform="translate(220.000000, 60.000000)">
                    <g id="Group-3" transform="translate(31.843805, 8.044387)">
                        <mask id="mask-2" fill="white">
                            <use xlink:href="#path-1"></use>
                        </mask>
                        <use id="Clip-2" fill="#BFC0C0" xlink:href="#path-1"></use>
                        <path d="M2.09082969,0.185385254 L2.14809917,0.231052727 L2.17056263,0.23179328 C1.04492114,5.60599083 0.176004908,9.68496012 0.248826013,11.3050446 L0.248826013,11.3050446 C0.322140821,12.9330283 1.08960121,13.5583024 1.08960121,13.5583024 L1.08960121,13.5583024 L6.24187953,13.5583024 L6.24187953,0.185385254 L2.09082969,0.185385254 Z" id="Fill-1" fill="#BFC0C0" mask="url(#mask-2)"></path>
                    </g>
                    <g id="Group-6" transform="translate(41.964705, 8.044387)">
                        <mask id="mask-4" fill="white">
                            <use xlink:href="#path-3"></use>
                        </mask>
                        <use id="Clip-5" fill="#BFC0C0" xlink:href="#path-3"></use>
                        <path d="M0.0733148075,0.185385254 L0.0733148075,13.5583024 L5.22534628,13.5583024 C5.22534628,13.5583024 5.99330037,12.9330283 6.06661518,11.3050446 L6.06661518,11.3050446 C6.13918943,9.68496012 5.2702732,5.60599083 4.14463171,0.23179328 L4.14463171,0.23179328 L4.16709517,0.231052727 L4.22436465,0.185385254 L0.0733148075,0.185385254 Z" id="Fill-4" fill="#BFC0C0" mask="url(#mask-4)"></path>
                    </g>
                    <g id="Group-9" transform="translate(31.103252, 0.145149)">
                        <mask id="mask-6" fill="white">
                            <use xlink:href="#path-5"></use>
                        </mask>
                        <use id="Clip-8" fill="#BFC0C0" xlink:href="#path-5"></use>
                        <path d="M4.48750803,0.101949547 C2.13156014,0.101949547 0.221672381,1.90569129 0.217229059,4.1320423 L0.217229059,4.1320423 L17.6999719,4.1320423 C17.6955285,1.90569129 15.7856408,0.101949547 13.4296929,0.101949547 L13.4296929,0.101949547 L4.48750803,0.101949547 Z" id="Fill-7" fill="#BFC0C0" mask="url(#mask-6)"></path>
                    </g>
                    <g id="Group-29" transform="translate(0.000000, 29.026739)" fill="#BFC0C0">
                        <g id="Group-12" transform="translate(21.229204, 21.969757)">
                            <path d="M4.85613093,2.07653701 C4.6756827,1.51248201 4.02128016,1.10641178 3.18642939,1.10641178 C2.05856624,1.10641178 1.35898993,1.73069847 1.35898993,2.72328716 C1.35898993,3.7161227 2.01339247,4.34016255 3.20148731,4.34016255 C4.09656978,4.34016255 4.59298755,3.94915024 4.84107301,3.44532693 L5.89389339,3.93409232 C5.48782316,4.88915962 4.57027724,5.43075116 3.11138663,5.43075116 C1.41181609,5.43075116 0.0728951604,4.44556801 0.0728951604,2.72328716 C0.0728951604,1.0086587 1.50191678,0.0234755495 3.18642939,0.0234755495 C4.50264001,0.0234755495 5.54040247,0.692689162 5.92400924,1.52753993 L4.85613093,2.07653701 Z" id="Fill-10"></path>
                        </g>
                        <g id="Group-15" transform="translate(31.350103, 21.969757)">
                            <path d="M3.30839857,1.10641178 C2.03736172,1.10641178 1.33062673,1.73069847 1.33062673,2.72328716 C1.33062673,3.7161227 2.03736172,4.34016255 3.30839857,4.34016255 C4.57943542,4.34016255 5.28617041,3.7161227 5.28617041,2.72328716 C5.28617041,1.73069847 4.57943542,1.10641178 3.30839857,1.10641178 M3.30839857,5.43075116 C1.52613288,5.43075116 0.0445319571,4.44556801 0.0445319571,2.72328716 C0.0445319571,1.0086587 1.52613288,0.0234755495 3.30839857,0.0234755495 C5.09091111,0.0234755495 6.57226518,1.0086587 6.57226518,2.72328716 C6.57226518,4.44556801 5.09091111,5.43075116 3.30839857,5.43075116" id="Fill-13"></path>
                        </g>
                        <path d="M43.3936028,23.2566418 L43.3936028,24.1665353 L46.1235303,24.1665353 C46.4846736,24.1665353 46.7177011,24.0087974 46.7177011,23.6928279 C46.7177011,23.4069742 46.4846736,23.2566418 46.1235303,23.2566418 L43.3936028,23.2566418 Z M47.9810856,27.2348958 L46.2738626,27.2348958 L44.8976672,25.2946453 L43.3936028,25.2946453 L43.3936028,27.2348958 L42.1677397,27.2348958 L42.1677397,22.1586477 L46.1309358,22.1586477 C47.3869147,22.1586477 48.0112014,22.760224 48.0112014,23.7303493 C48.0112014,24.6027214 47.4997257,25.1744288 46.4545577,25.2872398 L47.9810856,27.2348958 Z" id="Fill-16"></path>
                        <polygon id="Fill-18" points="55.8775347 23.8883834 58.6750994 27.2349452 56.930355 27.2349452 54.8923515 24.5726549 53.5914457 25.543027 53.5914457 27.2349452 52.3655826 27.2349452 52.3655826 22.158697 53.5914457 22.158697 53.5914457 24.219164 56.2761994 22.158697 58.2539712 22.158697"></polygon>
                        <polygon id="Fill-20" points="16.8676883 4.16035613 10.3673556 4.16035613 10.3673556 16.5915359 6.50043148 16.5915359 6.50043148 4.16035613 9.87404814e-05 4.16035613 9.87404814e-05 0.578051463 16.8676883 0.578051463"></polygon>
                        <polygon id="Fill-22" points="37.2936133 3.8755639 24.3166456 3.8755639 24.3166456 6.69855426 35.7041384 6.69855426 35.7041384 10.0438818 24.3166456 10.0438818 24.3166456 12.9382121 37.6256282 12.9382121 37.6256282 16.5916099 20.4260237 16.5916099 20.4260237 0.577878668 37.2936133 0.577878668"></polygon>
                        <path d="M54.4680883,5.03803558 C53.8512072,3.61469154 52.3091277,3.18763896 50.0790739,3.18763896 C46.8764264,3.18763896 45.2869515,3.80452012 45.2869515,5.08543102 C45.2869515,6.69860363 46.9238219,6.74624591 49.2252156,6.74624591 C50.7433505,6.74624591 52.3565232,6.74624591 53.8749049,6.88843221 C55.8203392,7.05456307 56.8403284,7.48161565 57.6707359,8.26462767 C58.287617,8.88126197 58.7857627,9.75906485 58.7857627,11.2063535 C58.7857627,14.7886581 56.2236941,17.0895582 49.8892454,17.0895582 C46.7579379,17.0895582 45.1682161,16.8286365 44.0294915,16.2830953 C42.012964,15.2868039 41.0403703,14.1478324 40.826844,11.7755923 L45.0734252,11.7755923 C45.3106492,13.2702764 47.8016247,13.8634598 50.1741117,13.8634598 C52.759878,13.8634598 54.7053124,13.1989364 54.7053124,11.6571038 C54.7053124,9.42704998 49.3910996,10.5894723 45.571571,9.901498 C43.3415172,9.49814313 41.1828034,8.57294482 41.1828034,5.15677101 C41.1828034,2.04866751 43.5313458,0.0560845935 50.0553762,0.0560845935 C55.5357198,0.0560845935 57.6944336,1.66925721 58.3350125,4.89584929 L54.4680883,5.03803558 Z" id="Fill-24"></path>
                        <g id="Group-28" transform="translate(59.737991, 0.493702)">
                            <path d="M7.26658356,9.64499491 L12.9365089,9.64499491 L10.1369694,3.47667704 L7.26658356,9.64499491 Z M20.3857376,16.0979322 L15.8782347,16.0979322 L14.3837975,12.8239447 L5.79559724,12.8239447 L4.27721549,16.0979322 L0.125671948,16.0979322 L7.6933893,0.0842009455 L12.6281917,0.0842009455 L20.3857376,16.0979322 Z" id="Fill-26"></path>
                        </g>
                    </g>
                </g>
            </g>
        </g>
    </g>
</svg>