<?xml version="1.0" encoding="UTF-8"?>
<svg width="171px" height="120px" viewBox="0 0 171 120" version="1.1" xmlns="http://www.w3.org/2000/svg" xmlns:xlink="http://www.w3.org/1999/xlink">
    <!-- Generator: Sketch 61.2 (89653) - https://sketch.com -->
    <title>Group 30</title>
    <desc>Created with Sketch.</desc>
    <defs>
        <path d="M4.43842795,0.393537118 L4.56,0.490480349 L4.60768559,0.492052402 C2.21816594,11.9004367 0.373624454,20.5593013 0.528209607,23.9984279 L0.528209607,23.9984279 C0.683842795,27.4543231 2.3130131,28.7816594 2.3130131,28.7816594 L2.3130131,28.7816594 L13.2503057,28.7816594 L13.2503057,0.393537118 L4.43842795,0.393537118 Z" id="path-1"></path>
        <linearGradient x1="39.9438501%" y1="0%" x2="60.0561499%" y2="100%" id="linearGradient-3">
            <stop stop-color="#B67F5F" offset="0%"></stop>
            <stop stop-color="#D9A57A" offset="100%"></stop>
        </linearGradient>
        <path d="M0.155633188,0.393537118 L0.155633188,28.7816594 L11.0924017,28.7816594 C11.0924017,28.7816594 12.7226201,27.4543231 12.8782533,23.9984279 L12.8782533,23.9984279 C13.0323144,20.5593013 11.1877729,11.9004367 8.79825328,0.492052402 L8.79825328,0.492052402 L8.84593886,0.490480349 L8.96751092,0.393537118 L0.155633188,0.393537118 Z" id="path-4"></path>
        <linearGradient x1="39.9431157%" y1="0%" x2="60.0568843%" y2="100%" id="linearGradient-6">
            <stop stop-color="#B67F5F" offset="0%"></stop>
            <stop stop-color="#D9A57A" offset="100%"></stop>
        </linearGradient>
        <path d="M9.52611354,0.216419214 C4.52489083,0.216419214 0.470567686,4.04541485 0.461135371,8.77152838 L0.461135371,8.77152838 L37.5736245,8.77152838 C37.5641921,4.04541485 33.509869,0.216419214 28.5086463,0.216419214 L28.5086463,0.216419214 L9.52611354,0.216419214 Z" id="path-7"></path>
        <linearGradient x1="0%" y1="47.3430649%" x2="100%" y2="52.6569351%" id="linearGradient-9">
            <stop stop-color="#B67F5F" offset="0%"></stop>
            <stop stop-color="#D9A57A" offset="100%"></stop>
        </linearGradient>
        <polygon id="path-10" points="0.154742358 0.0498340611 12.5755284 0.0498340611 12.5755284 11.5283843 0.154742358 11.5283843"></polygon>
        <polygon id="path-12" points="0.0945327511 0.0498340611 13.9516507 0.0498340611 13.9516507 11.5283843 0.0945327511 11.5283843"></polygon>
        <polygon id="path-14" points="0.266777293 0.178742358 43.2749345 0.178742358 43.2749345 34.1728035 0.266777293 34.1728035"></polygon>
    </defs>
    <g id="HOME" stroke="none" stroke-width="1" fill="none" fill-rule="evenodd">
        <g id="tesacork-home-desktop_02" transform="translate(-635.000000, -185.000000)">
            <g id="Group-30" transform="translate(635.000000, 185.000000)">
                <g id="Group-3" transform="translate(67.598253, 17.076681)">
                    <mask id="mask-2" fill="white">
                        <use xlink:href="#path-1"></use>
                    </mask>
                    <g id="Clip-2"></g>
                    <path d="M4.43842795,0.393537118 L4.56,0.490480349 L4.60768559,0.492052402 C2.21816594,11.9004367 0.373624454,20.5593013 0.528209607,23.9984279 L0.528209607,23.9984279 C0.683842795,27.4543231 2.3130131,28.7816594 2.3130131,28.7816594 L2.3130131,28.7816594 L13.2503057,28.7816594 L13.2503057,0.393537118 L4.43842795,0.393537118 Z" id="Fill-1" fill="url(#linearGradient-3)" mask="url(#mask-2)"></path>
                </g>
                <g id="Group-6" transform="translate(89.082969, 17.076681)">
                    <mask id="mask-5" fill="white">
                        <use xlink:href="#path-4"></use>
                    </mask>
                    <g id="Clip-5"></g>
                    <path d="M0.155633188,0.393537118 L0.155633188,28.7816594 L11.0924017,28.7816594 C11.0924017,28.7816594 12.7226201,27.4543231 12.8782533,23.9984279 L12.8782533,23.9984279 C13.0323144,20.5593013 11.1877729,11.9004367 8.79825328,0.492052402 L8.79825328,0.492052402 L8.84593886,0.490480349 L8.96751092,0.393537118 L0.155633188,0.393537118 Z" id="Fill-4" fill="url(#linearGradient-6)" mask="url(#mask-5)"></path>
                </g>
                <g id="Group-9" transform="translate(66.026201, 0.308122)">
                    <mask id="mask-8" fill="white">
                        <use xlink:href="#path-7"></use>
                    </mask>
                    <g id="Clip-8"></g>
                    <path d="M9.52611354,0.216419214 C4.52489083,0.216419214 0.470567686,4.04541485 0.461135371,8.77152838 L0.461135371,8.77152838 L37.5736245,8.77152838 C37.5641921,4.04541485 33.509869,0.216419214 28.5086463,0.216419214 L28.5086463,0.216419214 L9.52611354,0.216419214 Z" id="Fill-7" fill="url(#linearGradient-9)" mask="url(#mask-8)"></path>
                </g>
                <g id="Group-29" transform="translate(0.000000, 61.618166)">
                    <g id="Group-12" transform="translate(45.065502, 46.637555)">
                        <mask id="mask-11" fill="white">
                            <use xlink:href="#path-10"></use>
                        </mask>
                        <g id="Clip-11"></g>
                        <path d="M10.3086288,4.40808734 C9.92557205,3.21070742 8.53640175,2.34869869 6.76417467,2.34869869 C4.36993886,2.34869869 2.88487336,3.67393886 2.88487336,5.7810131 C2.88487336,7.88861135 4.27404367,9.21332751 6.79613974,9.21332751 C8.69622707,9.21332751 9.7500262,8.38328384 10.2766638,7.31376419 L12.5115983,8.35131878 C11.6495895,10.3787424 9.70181659,11.5284367 6.60487336,11.5284367 C2.9970131,11.5284367 0.154742358,9.43708297 0.154742358,5.7810131 C0.154742358,2.14118777 3.18827948,0.0498340611 6.76417467,0.0498340611 C9.55823581,0.0498340611 11.7612052,1.47044541 12.5755284,3.24267249 L10.3086288,4.40808734 Z" id="Fill-10" fill="#FFFFFF" mask="url(#mask-11)"></path>
                    </g>
                    <g id="Group-15" transform="translate(66.550218, 46.637555)">
                        <mask id="mask-13" fill="white">
                            <use xlink:href="#path-12"></use>
                        </mask>
                        <g id="Clip-14"></g>
                        <path d="M7.0230917,2.34869869 C4.32492576,2.34869869 2.82466376,3.67393886 2.82466376,5.7810131 C2.82466376,7.88861135 4.32492576,9.21332751 7.0230917,9.21332751 C9.72125764,9.21332751 11.2215197,7.88861135 11.2215197,5.7810131 C11.2215197,3.67393886 9.72125764,2.34869869 7.0230917,2.34869869 M7.0230917,11.5284367 C3.23968559,11.5284367 0.0945327511,9.43708297 0.0945327511,5.7810131 C0.0945327511,2.14118777 3.23968559,0.0498340611 7.0230917,0.0498340611 C10.8070218,0.0498340611 13.9516507,2.14118777 13.9516507,5.7810131 C13.9516507,9.43708297 10.8070218,11.5284367 7.0230917,11.5284367" id="Fill-13" fill="#FFFFFF" mask="url(#mask-13)"></path>
                    </g>
                    <path d="M92.1162445,49.3693624 L92.1162445,51.3008908 L97.9113537,51.3008908 C98.6779913,51.3008908 99.1726638,50.9660437 99.1726638,50.2953013 C99.1726638,49.6884891 98.6779913,49.3693624 97.9113537,49.3693624 L92.1162445,49.3693624 Z M101.854585,57.8144279 L98.2304803,57.8144279 L95.309083,53.6956507 L92.1162445,53.6956507 L92.1162445,57.8144279 L89.5139738,57.8144279 L89.5139738,47.0385328 L97.9270742,47.0385328 C100.593275,47.0385328 101.918515,48.3155633 101.918515,50.374952 C101.918515,52.2268297 100.832751,53.4404541 98.6140611,53.6799301 L101.854585,57.8144279 Z" id="Fill-16" fill="#FFFFFF"></path>
                    <polygon id="Fill-18" fill="#FFFFFF" points="118.617223 50.7104279 124.555913 57.8145328 120.852157 57.8145328 116.525869 52.1630044 113.764297 54.222917 113.764297 57.8145328 111.162026 57.8145328 111.162026 47.0386376 113.764297 47.0386376 113.764297 51.4126114 119.463511 47.0386376 123.661939 47.0386376"></polygon>
                    <polygon id="Fill-20" fill="#FFFFFF" points="35.8068472 8.83163319 22.0078952 8.83163319 22.0078952 35.2206288 13.7991616 35.2206288 13.7991616 8.83163319 0.000209606987 8.83163319 0.000209606987 1.2270917 35.8068472 1.2270917"></polygon>
                    <polygon id="Fill-22" fill="#FFFFFF" points="79.1671441 8.22707424 51.6195459 8.22707424 51.6195459 14.219738 75.7929956 14.219738 75.7929956 21.3212227 51.6195459 21.3212227 51.6195459 27.4653275 79.8719476 27.4653275 79.8719476 35.220786 43.3605066 35.220786 43.3605066 1.22672489 79.1671441 1.22672489"></polygon>
                    <path d="M115.62524,10.6947773 C114.315721,7.67329258 111.042183,6.76674236 106.30821,6.76674236 C99.509607,6.76674236 96.1354585,8.07626201 96.1354585,10.7953886 C96.1354585,14.2198428 99.6102183,14.3209782 104.495633,14.3209782 C107.718341,14.3209782 111.142795,14.3209782 114.366026,14.6228122 C118.495808,14.975476 120.661048,15.8820262 122.423843,17.5442096 C123.733362,18.8532052 124.79083,20.7166114 124.79083,23.7889258 C124.79083,31.3934672 119.352052,36.2778341 105.90524,36.2778341 C99.2580786,36.2778341 95.8834061,35.7239476 93.4661135,34.565869 C89.1854148,32.4509345 87.120786,30.0331179 86.6675109,24.99731 L95.6821834,24.99731 C96.1857642,28.1702358 101.473624,29.4294498 106.509956,29.4294498 C111.999039,29.4294498 116.128821,28.0187948 116.128821,24.7457817 C116.128821,20.0118079 104.847773,22.4794061 96.7396507,21.0189694 C92.0056769,20.1627249 87.4231441,18.1987074 87.4231441,10.9468297 C87.4231441,4.34892576 92.4086463,0.119056769 106.257904,0.119056769 C117.891616,0.119056769 122.474148,3.54351092 123.833974,10.3929432 L115.62524,10.6947773 Z" id="Fill-24" fill="#FFFFFF"></path>
                    <g id="Group-28" transform="translate(126.812227, 1.048035)">
                        <mask id="mask-15" fill="white">
                            <use xlink:href="#path-14"></use>
                        </mask>
                        <g id="Clip-27"></g>
                        <path d="M15.4255546,20.4744629 L27.4617118,20.4744629 L21.5188297,7.38031441 L15.4255546,20.4744629 Z M43.2749869,34.1728035 L33.7064279,34.1728035 L30.5340262,27.2227598 L12.3029345,27.2227598 L9.07970306,34.1728035 L0.266777293,34.1728035 L16.3315808,0.178742358 L26.807214,0.178742358 L43.2749869,34.1728035 Z" id="Fill-26" fill="#FFFFFF" mask="url(#mask-15)"></path>
                    </g>
                </g>
            </g>
        </g>
    </g>
</svg>